
<svg width="160" height="160" viewBox="0 0 160 160" fill="none" xmlns="http://www.w3.org/2000/svg">
<mask id="mask0_1_57" style="mask-type:alpha" maskUnits="userSpaceOnUse" x="0" y="0" width="160" height="160">
<circle cx="80" cy="80" r="80" fill="#5076FF"/>
</mask>
<g mask="url(#mask0_1_57)">
<circle cx="80" cy="80" r="80" fill="#5076FF"/>
<path fill-rule="evenodd" clip-rule="evenodd" d="M110.925 111.685L131.878 105.491L119.491 63.5853L98.538 69.7788L110.925 111.685ZM86.151 27.8731L107.104 21.6795L119.491 63.5853L161.397 51.1983L173.783 93.1041L215.689 80.7171L203.302 38.8114L161.397 51.1983L149.01 9.29262L190.915 -3.09427L178.529 -45L136.623 -32.6131L149.01 9.29262L107.104 21.6795L94.7172 -20.2262L73.7641 -14.0326L86.151 27.8731Z" fill="white"/>
<path fill-rule="evenodd" clip-rule="evenodd" d="M76.7376 -3.97524L55.7847 2.21823L68.1716 44.124L89.1245 37.9305L76.7376 -3.97524ZM101.511 79.8362L80.5584 86.0297L92.9454 127.935L113.898 121.742L101.511 79.8362ZM-28.027 26.9921L13.8787 14.6051L26.2656 56.5108L-15.6401 68.8978L-28.027 26.9921ZM26.2656 56.5108L68.1713 44.1239L80.5582 86.0296L38.6525 98.4166L26.2656 56.5108ZM-3.25289 110.804L38.6528 98.4166L51.0398 140.322L9.13403 152.709L-3.25289 110.804Z" fill="white"/>
<path fill-rule="evenodd" clip-rule="evenodd" d="M146.915 233.793L167.868 227.599L155.481 185.694L134.528 191.887L146.915 233.793ZM122.141 149.981L143.094 143.788L155.481 185.694L197.387 173.307L209.773 215.212L251.679 202.825L239.292 160.92L197.387 173.307L185 131.401L226.905 119.014L214.518 77.1083L172.613 89.4952L185 131.401L143.094 143.788L130.707 101.882L109.754 108.076L122.141 149.981Z" fill="white"/>
<path fill-rule="evenodd" clip-rule="evenodd" d="M112.727 118.133L91.7742 124.326L104.161 166.232L125.114 160.039L112.727 118.133ZM137.501 201.944L116.548 208.138L128.935 250.044L149.888 243.85L137.501 201.944ZM7.96268 149.1L49.8684 136.713L62.2553 178.619L104.161 166.232L116.548 208.138L74.642 220.525L62.2551 178.619L20.3496 191.006L7.96268 149.1ZM32.7366 232.912L74.6423 220.525L87.0293 262.431L45.1236 274.817L32.7366 232.912Z" fill="white"/>
</g>
</svg>
